<svg width="29" height="29" viewBox="0 0 29 29" fill="none" xmlns="http://www.w3.org/2000/svg">
<circle cx="14.5" cy="14.5" r="14" fill="white" stroke="#E5E5E5"/>
<path fill-rule="evenodd" clip-rule="evenodd" d="M9.5 10C9.22386 10 9 10.2356 9 10.5263V17.3684C9 17.6591 9.22386 17.8947 9.5 17.8947H14V18.9474H11.5C11.2239 18.9474 11 19.183 11 19.4737C11 19.7644 11.2239 20 11.5 20H17.5C17.7761 20 18 19.7644 18 19.4737C18 19.183 17.7761 18.9474 17.5 18.9474H15V17.8947H19.5C19.7761 17.8947 20 17.6591 20 17.3684V10.5263C20 10.2356 19.7761 10 19.5 10H9.5ZM13 14.4737C13 14.183 12.7761 13.9474 12.5 13.9474C12.2239 13.9474 12 14.183 12 14.4737V15.5263C12 15.817 12.2239 16.0526 12.5 16.0526C12.7761 16.0526 13 15.817 13 15.5263V14.4737ZM14.5 12.8947C14.7761 12.8947 15 13.1304 15 13.4211V15.5263C15 15.817 14.7761 16.0526 14.5 16.0526C14.2239 16.0526 14 15.817 14 15.5263V13.4211C14 13.1304 14.2239 12.8947 14.5 12.8947ZM17 12.3684C17 12.0777 16.7761 11.8421 16.5 11.8421C16.2239 11.8421 16 12.0777 16 12.3684V15.5263C16 15.817 16.2239 16.0526 16.5 16.0526C16.7761 16.0526 17 15.817 17 15.5263V12.3684Z" fill="#4D4D4D"/>
</svg>
