<svg width="29" height="29" viewBox="0 0 29 29" fill="none" xmlns="http://www.w3.org/2000/svg">
<circle cx="14.5" cy="14.5" r="14" fill="white" stroke="#E5E5E5"/>
<path d="M14.9377 8.18131C14.696 7.93956 14.304 7.93956 14.0623 8.18131L11.8956 10.348C11.6538 10.5897 11.6538 10.9817 11.8956 11.2234L14.0623 13.3901C14.304 13.6319 14.696 13.6319 14.9377 13.3901L17.1044 11.2234C17.3462 10.9817 17.3462 10.5897 17.1044 10.348L14.9377 8.18131Z" fill="#4D4D4D"/>
<path d="M14.9377 15.6099C14.696 15.3681 14.304 15.3681 14.0623 15.6099L11.8956 17.7766C11.6538 18.0183 11.6538 18.4103 11.8956 18.652L14.0623 20.8187C14.304 21.0604 14.696 21.0604 14.9377 20.8187L17.1044 18.652C17.3462 18.4103 17.3462 18.0183 17.1044 17.7766L14.9377 15.6099Z" fill="#4D4D4D"/>
<path d="M18.652 11.8956C18.4103 11.6538 18.0183 11.6538 17.7766 11.8956L15.6099 14.0623C15.3681 14.304 15.3681 14.696 15.6099 14.9377L17.7766 17.1044C18.0183 17.3462 18.4103 17.3462 18.652 17.1044L20.8187 14.9377C21.0604 14.696 21.0604 14.304 20.8187 14.0623L18.652 11.8956Z" fill="#4D4D4D"/>
<path d="M11.2234 11.8956C10.9817 11.6538 10.5897 11.6538 10.348 11.8956L8.18131 14.0623C7.93956 14.304 7.93956 14.696 8.18131 14.9377L10.348 17.1044C10.5897 17.3462 10.9817 17.3462 11.2234 17.1044L13.3901 14.9377C13.6319 14.696 13.6319 14.304 13.3901 14.0623L11.2234 11.8956Z" fill="#4D4D4D"/>
</svg>
