<svg width="29" height="29" viewBox="0 0 29 29" fill="none" xmlns="http://www.w3.org/2000/svg">
<circle cx="14.5" cy="14.5" r="14" fill="white" stroke="#E5E5E5"/>
<path d="M16.5 9.5C16.5 9.22386 16.7239 9 17 9H18.5C18.7761 9 19 9.22386 19 9.5V18H19.5C19.7761 18 20 18.2239 20 18.5C20 18.7761 19.7761 19 19.5 19H9.5C9.22386 19 9 18.7761 9 18.5C9 18.2239 9.22386 18 9.5 18H10V15C10 14.7239 10.2239 14.5 10.5 14.5H12C12.2761 14.5 12.5 14.7239 12.5 15V18H13.25V12.5C13.25 12.2239 13.4739 12 13.75 12H15.25C15.5261 12 15.75 12.2239 15.75 12.5V18H16.5V9.5Z" fill="#4D4D4D"/>
</svg>
